<mxfile host="Electron" modified="2024-07-04T23:13:53.300Z" agent="Mozilla/5.0 (X11; Linux x86_64) AppleWebKit/537.36 (KHTML, like Gecko) draw.io/24.5.3 Chrome/124.0.6367.207 Electron/30.0.6 Safari/537.36" etag="B_xyXLM3j0KcyRMD_9u2" version="24.5.3" type="device">
  <diagram name="Page-1" id="ZcRAXSWJTWcisyccbfvs">
    <mxGraphModel dx="783" dy="-164" grid="1" gridSize="5" guides="1" tooltips="1" connect="1" arrows="1" fold="1" page="0" pageScale="1" pageWidth="827" pageHeight="1169" math="0" shadow="0">
      <root>
        <mxCell id="0" />
        <mxCell id="1" parent="0" />
        <mxCell id="aZooovynMMBxmRVDPCQJ-79" value="" style="rounded=0;whiteSpace=wrap;html=1;strokeColor=none;fillColor=#C4EFFF;" vertex="1" parent="1">
          <mxGeometry x="-132" y="768" width="362" height="10" as="geometry" />
        </mxCell>
        <mxCell id="aZooovynMMBxmRVDPCQJ-80" value="" style="shape=trapezoid;perimeter=trapezoidPerimeter;whiteSpace=wrap;html=1;fixedSize=1;rotation=90;strokeColor=none;fillColor=#00AAFF;" vertex="1" parent="1">
          <mxGeometry x="257.5" y="807.5" width="105" height="20" as="geometry" />
        </mxCell>
        <mxCell id="aZooovynMMBxmRVDPCQJ-81" value="" style="endArrow=none;html=1;rounded=0;strokeWidth=4;" edge="1" parent="1">
          <mxGeometry width="50" height="50" relative="1" as="geometry">
            <mxPoint x="300" y="820" as="sourcePoint" />
            <mxPoint x="300" y="820" as="targetPoint" />
            <Array as="points">
              <mxPoint x="300" y="880" />
              <mxPoint x="250" y="855" />
              <mxPoint x="220" y="920" />
              <mxPoint x="180" y="920" />
              <mxPoint x="140" y="880" />
              <mxPoint x="-60" y="880" />
              <mxPoint x="-100" y="920" />
              <mxPoint x="-140" y="920" />
              <mxPoint x="-140" y="720" />
              <mxPoint x="-100" y="720" />
              <mxPoint x="-60" y="760" />
              <mxPoint x="140" y="760" />
              <mxPoint x="180" y="720" />
              <mxPoint x="220" y="720" />
              <mxPoint x="250" y="785" />
              <mxPoint x="300" y="760" />
            </Array>
          </mxGeometry>
        </mxCell>
        <mxCell id="aZooovynMMBxmRVDPCQJ-82" value="" style="endArrow=none;html=1;rounded=0;strokeWidth=4;" edge="1" parent="1">
          <mxGeometry width="50" height="50" relative="1" as="geometry">
            <mxPoint x="-60" y="880" as="sourcePoint" />
            <mxPoint x="-60" y="760" as="targetPoint" />
          </mxGeometry>
        </mxCell>
        <mxCell id="aZooovynMMBxmRVDPCQJ-83" value="" style="endArrow=none;html=1;rounded=0;strokeWidth=4;" edge="1" parent="1">
          <mxGeometry width="50" height="50" relative="1" as="geometry">
            <mxPoint x="140" y="880" as="sourcePoint" />
            <mxPoint x="140" y="760" as="targetPoint" />
          </mxGeometry>
        </mxCell>
        <mxCell id="aZooovynMMBxmRVDPCQJ-84" value="" style="endArrow=none;html=1;rounded=0;strokeWidth=4;" edge="1" parent="1">
          <mxGeometry width="50" height="50" relative="1" as="geometry">
            <mxPoint x="250" y="855" as="sourcePoint" />
            <mxPoint x="250" y="785" as="targetPoint" />
          </mxGeometry>
        </mxCell>
        <mxCell id="aZooovynMMBxmRVDPCQJ-85" value="" style="rounded=0;whiteSpace=wrap;html=1;strokeColor=none;fillColor=#FFBC21;" vertex="1" parent="1">
          <mxGeometry x="-45" y="800" width="20" height="40" as="geometry" />
        </mxCell>
        <mxCell id="aZooovynMMBxmRVDPCQJ-86" value="" style="rounded=0;whiteSpace=wrap;html=1;strokeColor=none;fillColor=#FFBC21;" vertex="1" parent="1">
          <mxGeometry x="105" y="800" width="20" height="40" as="geometry" />
        </mxCell>
        <mxCell id="aZooovynMMBxmRVDPCQJ-87" value="" style="rounded=0;whiteSpace=wrap;html=1;strokeColor=none;fillColor=#FFBC21;" vertex="1" parent="1">
          <mxGeometry x="-15" y="800" width="20" height="40" as="geometry" />
        </mxCell>
        <mxCell id="aZooovynMMBxmRVDPCQJ-88" value="" style="rounded=0;whiteSpace=wrap;html=1;strokeColor=none;fillColor=#FFBC21;" vertex="1" parent="1">
          <mxGeometry x="75" y="800" width="20" height="40" as="geometry" />
        </mxCell>
        <mxCell id="aZooovynMMBxmRVDPCQJ-89" value="" style="endArrow=none;html=1;rounded=0;strokeWidth=4;" edge="1" parent="1">
          <mxGeometry width="50" height="50" relative="1" as="geometry">
            <mxPoint x="-140" y="855" as="sourcePoint" />
            <mxPoint x="250" y="855" as="targetPoint" />
          </mxGeometry>
        </mxCell>
        <mxCell id="aZooovynMMBxmRVDPCQJ-90" value="" style="endArrow=none;html=1;rounded=0;strokeWidth=4;" edge="1" parent="1">
          <mxGeometry width="50" height="50" relative="1" as="geometry">
            <mxPoint x="-140" y="785" as="sourcePoint" />
            <mxPoint x="250" y="785" as="targetPoint" />
          </mxGeometry>
        </mxCell>
        <mxCell id="aZooovynMMBxmRVDPCQJ-91" value="" style="rounded=0;whiteSpace=wrap;html=1;strokeColor=none;fillColor=#C4EFFF;" vertex="1" parent="1">
          <mxGeometry x="-132" y="863" width="362" height="10" as="geometry" />
        </mxCell>
        <mxCell id="aZooovynMMBxmRVDPCQJ-92" value="" style="ellipse;whiteSpace=wrap;html=1;fillColor=none;strokeWidth=4;strokeColor=#547EF0;" vertex="1" parent="1">
          <mxGeometry x="170" y="795" width="50" height="50" as="geometry" />
        </mxCell>
        <mxCell id="aZooovynMMBxmRVDPCQJ-93" value="" style="ellipse;whiteSpace=wrap;html=1;fillColor=none;strokeWidth=4;strokeColor=#547EF0;" vertex="1" parent="1">
          <mxGeometry x="-125" y="795" width="50" height="50" as="geometry" />
        </mxCell>
        <mxCell id="aZooovynMMBxmRVDPCQJ-94" value="" style="ellipse;whiteSpace=wrap;html=1;fillColor=none;strokeWidth=4;strokeColor=#547EF0;" vertex="1" parent="1">
          <mxGeometry x="15" y="795" width="50" height="50" as="geometry" />
        </mxCell>
      </root>
    </mxGraphModel>
  </diagram>
</mxfile>
